<svg xmlns="http://www.w3.org/2000/svg" viewBox="0 0 64 64">
  <g transform="translate(10.04,42.34)" fill="#ffffff">
    <path d="M17.44 1.72L17.44 1.72L17.44-4.71Q14.10-2.43 12.80-1.69L12.80-1.69Q9.77-0.04 7.49-0.04L7.49-0.04Q4.75-0.04 2.78-2.04L2.78-2.04Q0.77-4.11 0.77-6.79L0.77-6.79Q0.95-9.60 1.97-12.48L1.97-12.48Q4.08-18.60 8.96-21.45L8.96-21.45Q11.39-22.89 14.55-22.89L14.55-22.89Q14.63-22.89 14.70-22.89L14.70-22.89L15.64-22.92Q17.26-22.92 17.12-21.66L17.12-21.66Q14.31-21.52 11.85-20.36Q9.39-19.20 7.58-17.24Q5.77-15.29 4.73-12.69Q3.69-10.09 3.69-7.38Q3.69-4.68 5.10-3.48Q6.50-2.29 8.72-2.29L8.72-2.29Q10.62-2.29 13.99-3.94L13.99-3.94Q16.14-4.99 17.19-6.33L17.19-6.33Q17.72-6.96 17.72-7.66L17.72-7.66L17.72-12.87Q16.66-12.87 12.81-12.06Q8.96-11.25 8.37-11.14L8.37-11.14Q8.19-11.25 7.95-11.37Q7.70-11.50 7.66-11.74L7.66-11.74Q7.59-12.27 9.21-13.36L9.21-13.36Q9.60-13.57 13.85-14.19Q18.11-14.80 19.27-14.98Q20.43-15.15 21.20-15.26L21.20-15.26Q21.55-15.19 22.08-15.28Q22.61-15.36 23.06-15.33L23.06-15.33Q24.19-15.29 24.12-14.10L24.12-14.10L21.20-12.90Q20.53-10.76 20.53-4.82L20.53-4.82L20.60 0.42Q20.60 1.13 20.60 1.72L20.60 1.72Q19.55 2.25 18.56 2.25Q17.58 2.25 17.44 1.72ZM40.01-11.50L40.01-11.50L39.90-18.14Q39.90-19.72 39.99-20.94Q40.08-22.15 40.50-22.15L40.50-22.15L42.86-22.15Q42.86-21.59 42.96-19.97Q43.07-18.35 43.10-16.72Q43.14-15.08 43.14-13.92Q43.14-12.76 43.10-10.92Q43.07-9.07 42.75-6.86L42.75-6.86Q42.01-1.76 39.94-0.56L39.94-0.56Q38.36 0.32 34.91-0.14L34.91-0.14Q31.43-0.63 28.79-2.18L28.79-2.18Q25.70-3.97 25.24-6.40L25.24-6.40Q25.24-7.21 25.77-7.80L25.77-7.80Q26.72-8.93 27.49-8.93L27.49-8.93Q27.53-6.93 28.58-5.63L28.58-5.63Q31.04-2.67 36.49-2.67L36.49-2.67Q37.41-2.67 38.29-2.78L38.29-2.78Q40.01-3.69 40.01-11.50Z"/>
  </g>
</svg>
